<svg width="113" height="171" viewBox="0 0 113 171" fill="none" xmlns="http://www.w3.org/2000/svg">
<path d="M104.166 101.485C104.166 101.485 104.472 101.734 104.645 102.314C104.818 102.895 104.911 103.337 105.15 103.599C105.389 103.862 105.775 103.972 106.001 103.931C106.227 103.889 105.642 104.511 105.575 104.787C105.509 105.064 105.429 105.713 105.482 106.031C105.535 106.349 105.721 107.343 105.655 107.744C105.589 108.145 105.456 108.614 105.376 108.78C105.296 108.946 105.216 109.098 105.216 109.098C105.216 109.098 104.871 108.835 104.432 108.822C103.993 108.808 104.711 109.139 104.432 109.789C104.153 110.438 104.047 111.391 104.166 111.543C104.286 111.695 104.379 111.626 104.379 111.626L104.95 112.497L105.708 112.621C105.708 112.621 106.838 114.417 106.918 114.541C106.998 114.666 107.622 115.481 107.769 115.564C107.915 115.647 107.676 115.743 107.622 116.033C107.569 116.324 107.489 116.655 107.569 116.71C107.649 116.766 107.277 116.572 107.077 116.655C106.878 116.738 106.426 116.959 106.28 117.76C106.134 118.562 105.668 119.391 105.482 119.446C105.296 119.501 106.665 120.454 106.665 120.454C106.665 120.454 107.21 121.049 107.117 121.67C107.011 122.278 107.051 122.168 107.051 122.168C107.051 122.168 106.639 122.458 106.479 122.458C106.32 122.458 106.918 122.43 106.918 122.43L107.41 123.259H107.835L107.848 123.48L108.26 123.439L108.885 124.503L109.616 124.433L110.241 125.497L110.972 125.428C110.972 125.428 112.368 127.722 112.421 128.716C112.474 129.711 112.528 129.78 112.235 130.457C111.943 131.134 111.398 131.051 111.398 131.051C111.398 131.051 111.504 131.576 111.664 132.046C111.823 132.516 112.155 133.068 111.956 133.745L111.757 134.408L108.872 135.597C108.872 135.597 107.583 136.246 106.333 136.053C105.083 135.845 104.166 135.5 104.166 135.5L71.6375 111.474L5.23756 62.4141C5.23756 62.4141 3.50943 58.2279 4.46654 57.3852C5.42366 56.5424 6.23455 56.1694 6.23455 56.1694C6.23455 56.1694 5.25085 53.5167 6.32761 52.4529C7.40436 51.3891 8.05573 51.7068 8.08232 52.1628L8.1089 52.6187L8.90651 52.3285L9.292 52.3838C9.292 52.3838 8.91979 51.2647 9.19895 51.2785C9.47811 51.2924 8.72039 50.8226 8.72039 50.8226C8.72039 50.8226 8.42794 51.472 8.20195 51.2785C7.97597 51.0851 7.84304 50.4634 7.84304 50.4634L8.09561 50.2976L7.37778 49.8279L7.524 49.441C7.524 49.441 7.28472 49.4825 6.85933 49.3167C6.43395 49.1509 6.02186 48.8193 6.02186 48.8193C6.02186 48.8193 6.20796 48.3772 6.19467 48.1976C6.18138 48.018 6.1415 47.2996 6.1415 47.2996C6.1415 47.2996 4.28044 46.2219 3.08404 44.8818C1.88765 43.5417 1.5819 42.2983 1.5819 42.2983C1.5819 42.2983 2.53902 40.9167 3.08404 40.516C3.62907 40.1153 4.28044 39.7976 4.28044 39.7976L3.9614 39.0653C3.9614 39.0653 3.24356 39.2035 3.13722 39.0377C3.03087 38.8719 2.1668 37.0759 1.75471 35.7772C1.34262 34.4785 0.943822 33.9673 0.518437 33.5528C0.0930522 33.1383 0 33.0554 0 33.0554C0 33.0554 0.385508 30.4443 1.7946 29.6015C3.20368 28.7449 4.65265 28.2475 5.22426 28.4271C5.79587 28.6067 8.34819 30.6515 9.18566 31.4252C10.5948 32.7239 14.7688 35.487 14.7688 35.487L104.153 101.513L104.166 101.485Z" fill="#8D8AA1"/>
<path d="M19.9537 33.3034C19.9537 33.3034 20.1531 32.1705 20.6317 31.839C21.1103 31.5074 22.0009 31.1344 22.2801 30.5817C22.5592 30.0291 22.5459 30.0844 22.5459 30.0844L22.3199 29.7251L22.4662 29.5041C22.4662 29.5041 22.3465 29.062 21.9211 28.7166C21.4958 28.3712 21.5357 28.0949 21.5357 28.0949C21.5357 28.0949 22.187 27.0863 22.3332 26.1054C22.4795 25.1245 22.4795 25.083 22.4795 25.083C22.4795 25.083 21.8813 25.0416 21.8015 24.8205C21.7218 24.5995 21.8946 24.71 22.0275 23.5633C22.0275 23.5633 21.1103 23.356 20.9906 23.2317C20.871 23.1073 21.3628 21.6981 20.9109 20.1231C20.4589 18.5481 20.2329 18.7968 19.5948 17.4014C18.9435 16.006 18.3054 14.4172 18.6111 13.9198C18.9169 13.4224 19.1429 14.0718 19.1429 14.0718L19.5018 12.7455L19.2359 11.8889L18.6377 11.7507L18.8238 11.3777L18.425 10.3001L17.8268 10.1619L17.9731 9.71979L17.6141 8.71123C17.6141 8.71123 17.0292 8.14479 16.8165 7.19149C16.6038 6.2382 15.8594 6.21057 15.9923 5.54741C16.1253 4.88425 16.2316 6.1553 16.6171 4.17964C17.0026 2.20397 17.0691 1.58226 17.2818 1.51318C17.4945 1.4441 21.1236 0.698046 21.9876 0.366466C22.8517 0.0348855 25.0982 -0.117087 25.4173 0.103967C25.7363 0.32502 26.3611 1.84476 27.1321 2.02437C27.9031 2.20397 27.7702 2.28687 27.7702 2.28687L77.1813 99.3156C77.1813 99.3156 77.6333 100.089 77.5535 101.222C77.4738 102.355 77.713 103.543 78.298 103.723C78.8829 103.902 78.0321 103.668 77.9922 104.054C77.9523 104.441 78.1517 104.925 77.9922 105.118C77.8327 105.312 77.3408 105.436 77.3408 105.436C77.3408 105.436 78.9493 107.218 79.4412 110.216C79.933 113.214 79.5874 116.889 79.5874 116.889C79.5874 116.889 80.3451 121.31 80.3451 121.255C80.3451 121.2 80.5977 122.996 80.3451 123.963C80.0925 124.944 79.9463 125.276 79.9463 125.276C79.9463 125.276 80.3451 125.483 80.5046 126.243C80.6642 127.003 80.0128 127.762 80.4648 128.274C80.9167 128.785 80.3717 128.122 79.8134 128.771C79.2551 129.42 79.162 128.812 79.162 128.812C79.162 128.812 77.9656 131.327 78.0853 131.672C78.2049 132.018 75.4399 132.059 74.855 132.391C74.2701 132.736 71.9969 133.772 70.8803 132.391C69.7504 131.009 19.9272 33.3173 19.9272 33.3173L19.9537 33.3034Z" fill="#5B7BA9"/>
<path d="M51.3018 148.694L45.1736 131.093C45.1736 131.093 43.2461 125.635 43.1132 125C42.9669 124.364 41.1989 120.703 41.1989 120.703L41.837 123.439L43.9506 129.476L42.7941 128.896C42.7941 128.896 42.5947 129.048 42.3289 128.979C42.0763 128.91 41.8769 126.962 41.8104 126.575C41.7573 126.188 40.9331 125.179 40.8932 124.199C40.8533 123.218 39.9627 123.093 39.6569 123.204C39.3645 123.301 39.976 125.138 40.4279 126.147C40.8799 127.155 40.8932 127.763 40.8932 127.763C40.8932 127.763 40.3482 127.625 39.9627 127.266C39.5771 126.906 39.6436 126.285 39.6436 126.285C39.6436 126.285 39.2448 125.704 39.2448 125.387C39.2448 125.069 38.8593 124.516 38.7264 124.351C38.5934 124.185 38.6865 123.977 38.6865 123.977C38.6865 123.977 38.3542 123.798 38.1947 123.452C38.0218 123.093 38.1947 122.693 38.1947 122.693C38.1947 122.693 37.6895 122.43 36.8121 122.25C35.9348 122.071 35.4296 122.72 35.4296 122.72L40.1886 135.679L39.8962 135.845L39.5107 135.707L38.301 131.328C38.301 131.328 37.0913 130.029 36.5463 130.816C36.0013 131.604 37.8756 134.947 37.8756 134.947C37.8756 134.947 38.8327 138.097 38.4871 137.849C38.1282 137.614 37.7294 136.412 37.7294 136.412L36.0278 131.935C36.0278 131.935 35.1638 130.678 34.4194 130.595C33.6749 130.526 34.6719 131.825 34.6719 131.825L35.2701 133.386L34.22 133.193L35.9747 135.859C35.9747 135.859 33.7547 135.983 34.1934 136.094C34.858 136.26 36.2007 137.033 36.2007 137.033C36.2007 137.033 34.1535 137.296 34.4592 137.379C35.8151 137.724 37.0116 138.456 37.0116 138.456C37.0116 138.456 34.3662 138.332 34.8315 138.636C35.4961 139.064 36.0943 138.788 36.7191 139.341C37.3439 139.893 37.2109 140.57 36.9052 141.468C36.5995 142.366 37.1312 142.726 37.1312 142.726C37.1312 142.726 37.3705 144.01 37.8224 144.425C38.2877 144.839 37.7294 145.696 37.6762 146.11C37.623 146.539 38.7663 149.081 38.8992 149.62C39.0321 150.158 39.7633 152.714 39.7633 152.714C39.7633 152.714 40.9065 155.353 40.9464 155.754C40.9862 156.155 41.3584 157.688 41.3584 157.688C41.3584 157.688 40.7868 156.721 40.6406 156.237C40.4944 155.754 39.9095 154.552 40.0424 154.289C40.1753 154.027 39.1783 152.3 39.072 151.664C38.9657 151.029 38.4073 149.924 38.1548 149.33C37.9022 148.735 37.304 146.456 37.304 146.456C37.304 146.456 36.5729 144.204 35.7221 143.126C34.8713 142.049 36.5596 143.776 35.6158 142.201C34.6719 140.626 32.8906 141.993 32.8906 141.993L35.7221 150.145L39.2714 159.816C39.2714 159.816 39.9892 161.487 39.9095 162.012C39.8297 162.537 38.9922 165.19 38.9922 165.19C38.9922 165.19 39.7898 167.705 40.1089 168.561C40.4279 169.404 41.0793 169.915 41.0793 169.915C41.0793 169.915 41.385 169.141 41.6376 168.893C41.8902 168.644 42.4086 169.128 42.4751 169.183C42.5548 169.252 42.9271 167.705 42.9138 167.207C42.9138 166.724 43.0201 165.853 43.0201 165.853L43.5518 166.171C44.0836 166.489 44.0836 166.959 44.0836 166.959C44.0836 166.959 43.9905 167.691 43.8177 168.948C43.6449 170.205 44.4691 170.993 44.4691 170.993C44.4691 170.993 45.0939 171.076 45.9978 170.703C46.915 170.33 47.0613 169.293 47.1011 169.003C47.141 168.713 47.1277 168.299 47.2341 167.981C47.3404 167.663 46.915 166.945 47.2075 167.111C47.4999 167.276 47.6462 166.489 48.0184 166.13C48.3906 165.77 48.4438 163.767 48.5634 163.284C48.6963 162.814 48.8293 160.659 48.8293 159.843C48.8293 159.028 48.271 155.574 48.2444 155.118C48.2311 154.662 48.4969 152.701 48.59 152.383C48.6963 152.065 48.138 150.684 48.138 150.684C48.138 150.684 47.6993 151.236 48.0583 149.482C48.364 147.989 48.0051 145.862 47.912 145.433C47.912 145.42 47.8987 145.378 47.8855 145.364C47.8855 145.323 47.8855 145.364 47.912 145.433C47.9785 145.765 48.3773 146.691 48.9223 147.727C49.4939 148.805 49.0021 150.684 49.0154 151.195C49.0287 151.706 48.6565 153.695 48.816 154.441C48.9755 155.201 49.8927 154.676 50.3713 154.345C50.8499 154.013 50.7435 153.253 50.7435 153.253C50.7435 153.253 50.3846 152.908 50.7169 152.866C51.036 152.839 50.7701 151.609 50.9296 151.512C51.0891 151.43 50.8499 150.062 51.1024 150.048C51.3683 150.048 51.2221 148.666 51.2221 148.666L51.3018 148.694ZM43.2062 163.864C43.2461 163.753 43.2993 162.869 43.0999 162.316C42.9005 161.764 42.6878 161.322 42.289 160.645C41.8902 159.968 41.8769 158.849 41.8769 158.849L41.7705 158.407L42.4352 159.166C42.4352 159.166 42.2624 159.346 42.1428 159.664C42.0231 159.982 42.7675 160.355 42.8872 160.424C43.0068 160.493 42.9669 161.156 43.4189 161.943C43.8709 162.731 43.153 163.961 43.2062 163.85V163.864Z" fill="#5B7BA9"/>
<path d="M47.9797 145.46C47.9664 145.391 47.9531 145.35 47.9531 145.391C47.9531 145.405 47.9664 145.446 47.9797 145.46Z" fill="#5B7BA9"/>
</svg>
